<svg xmlns="http://www.w3.org/2000/svg" xmlns:xlink="http://www.w3.org/1999/xlink" width="36" height="34.145" viewBox="0 0 36 34.145"><defs><style>.a{fill:url(#a);}</style><linearGradient id="a" x1="0.5" x2="0.5" y2="1" gradientUnits="objectBoundingBox"><stop offset="0" stop-color="#2663b1"/><stop offset="1" stop-color="#41a4f5"/></linearGradient></defs><path class="a" d="M32.375-21.31a3.5,3.5,0,0,1,2.571,1.054A3.5,3.5,0,0,1,36-17.685V2.043a3.5,3.5,0,0,1-1.054,2.571,3.5,3.5,0,0,1-2.571,1.054H3.625A3.5,3.5,0,0,1,1.054,4.615,3.5,3.5,0,0,1,0,2.043V-17.685a3.5,3.5,0,0,1,1.054-2.571A3.5,3.5,0,0,1,3.625-21.31h7.166v-3.625a3.4,3.4,0,0,1,1.054-2.487,3.5,3.5,0,0,1,2.571-1.054h7.166a3.5,3.5,0,0,1,2.571,1.054,3.4,3.4,0,0,1,1.054,2.487v3.625Zm-10.792,0v-3.625H14.417v3.625Z" transform="translate(0 28.477)"/></svg>