<svg xmlns="http://www.w3.org/2000/svg" xmlns:xlink="http://www.w3.org/1999/xlink" width="40" height="40" viewBox="0 0 40 40"><defs><style>.a{fill:none;}.b{fill:url(#a);}.c,.d{stroke:none;}.d{fill:#2a6ebc;}</style><linearGradient id="a" x1="0.5" x2="0.5" y2="1" gradientUnits="objectBoundingBox"><stop offset="0" stop-color="#2663b1"/><stop offset="1" stop-color="#41a4f5"/></linearGradient></defs><g transform="translate(-537 -988)"><g class="a" transform="translate(537 988)"><path class="c" d="M20,0A20,20,0,1,1,0,20,20,20,0,0,1,20,0Z"/><path class="d" d="M 20 2 C 15.19202041625977 2 10.67182922363281 3.872329711914063 7.272079467773438 7.272079467773438 C 3.872329711914063 10.67182922363281 2 15.19202041625977 2 20 C 2 24.80797958374023 3.872329711914063 29.32817077636719 7.272079467773438 32.72792053222656 C 10.67182922363281 36.12767028808594 15.19202041625977 38 20 38 C 24.80797958374023 38 29.32817077636719 36.12767028808594 32.72792053222656 32.72792053222656 C 36.12767028808594 29.32817077636719 38 24.80797958374023 38 20 C 38 15.19202041625977 36.12767028808594 10.67182922363281 32.72792053222656 7.272079467773438 C 29.32817077636719 3.872329711914063 24.80797958374023 2 20 2 M 20 0 C 31.04570007324219 0 40 8.954299926757813 40 20 C 40 31.04570007324219 31.04570007324219 40 20 40 C 8.954299926757813 40 0 31.04570007324219 0 20 C 0 8.954299926757813 8.954299926757813 0 20 0 Z"/></g><path class="b" d="M22,44A19.844,19.844,0,0,1,7.858,38.106a20.068,20.068,0,0,1-4.286-6.362A19.739,19.739,0,0,1,2,24a18.971,18.971,0,0,1,2.824-9.825L22,22V4A20.166,20.166,0,0,1,35.75,9.858a20.9,20.9,0,0,1,4.531,6.357A18.614,18.614,0,0,1,42,24,20,20,0,0,1,22,44Z" transform="translate(535 984)"/></g></svg>