<svg xmlns="http://www.w3.org/2000/svg" xmlns:xlink="http://www.w3.org/1999/xlink" width="33.507" height="39.427" viewBox="0 0 33.507 39.427"><defs><style>.a{fill:url(#a);}</style><linearGradient id="a" x1="0.5" x2="0.5" y2="1" gradientUnits="objectBoundingBox"><stop offset="0" stop-color="#2663b1"/><stop offset="1" stop-color="#41a4f5"/></linearGradient></defs><g transform="translate(18888.738 -692.131)"><path class="a" d="M23.521,42.262H19.588a9.651,9.651,0,0,1-6.87-2.845L.941,27.641a2.653,2.653,0,0,1,0-3.748,3.958,3.958,0,0,1,5.147-.366l5.836,4.252V10.773A3.374,3.374,0,0,1,15.294,7.4a3.386,3.386,0,0,1,3.392,3.373v3.585a.509.509,0,0,0-.016.128v9.174a.51.51,0,0,0,1.02,0V14.845a3.388,3.388,0,0,1,3.962,2.87l.054-.03.01-.005v5.979a.509.509,0,0,0,1.019,0V17.336a3.437,3.437,0,0,1,.555-.047,3.388,3.388,0,0,1,3.358,2.926l0,0,0,0v3.449a.51.51,0,0,0,1.02,0V19.842a3.389,3.389,0,0,1,4,3.318l-.465,9.858a9.7,9.7,0,0,1-9.688,9.245ZM8.709,14.161a.892.892,0,0,1-.626-.259.866.866,0,0,1-.2-.312,7.941,7.941,0,1,1,14.846,0,.883.883,0,0,1-1.139.515.881.881,0,0,1-.514-1.139,6.174,6.174,0,1,0-11.54,0A.888.888,0,0,1,9.02,14.1.87.87,0,0,1,8.709,14.161Z" transform="translate(-18888.904 689.296)"/></g></svg>