<svg xmlns="http://www.w3.org/2000/svg" xmlns:xlink="http://www.w3.org/1999/xlink" width="36" height="34.589" viewBox="0 0 36 34.589"><defs><style>.a,.b{fill:#df2027;}.a{fill-rule:evenodd;}.c{fill:url(#a);}</style><linearGradient id="a" x1="0.5" x2="0.5" y2="1" gradientUnits="objectBoundingBox"><stop offset="0" stop-color="#2663b1"/><stop offset="1" stop-color="#41a4f5"/></linearGradient></defs><g transform="translate(-452 -958)"><g transform="translate(484.865 986.237)"><g transform="translate(-22.916 -22.502)"><path class="a" d="M30.294,11.643a.366.366,0,0,1,.634-.365l.527.9a.366.366,0,0,1-.634.365Z" transform="translate(-26.994 -9.903)"/><path class="a" d="M71.5.365a.365.365,0,0,1,.731,0V1.418a.365.365,0,0,1-.731,0Z" transform="translate(-63.816 0)"/><path class="b" d="M9.124,13.5a8.312,8.312,0,0,1,1.139-3.169c.752-1.29,2.084-2.922,2.063-4.459A5.483,5.483,0,0,0,6.91.393,5.479,5.479,0,0,0,1.483,5.872c.076,1.558,1.215,3,2.075,4.448A8.179,8.179,0,0,1,4.729,13.5a6.931,6.931,0,1,1,4.406,0ZM7.59,7.259H6.052L9.544,3.777,7.868,6.989H9.533L4.879,12.179ZM6.481,4.948a.677.677,0,1,1,.677.677A.677.677,0,0,1,6.481,4.948Z" transform="translate(1.128 2.303)"/><path class="a" d="M.178,42.027a.366.366,0,1,1,.365-.634l.913.526a.366.366,0,1,1-.365.634Z" transform="translate(0.005 -36.903)"/><path class="a" d="M135.957,42.027a.366.366,0,1,0-.365-.634l-.913.526a.366.366,0,1,0,.365.634Z" transform="translate(-120.041 -36.903)"/><path class="a" d="M109.154,11.643a.366.366,0,0,0-.634-.365l-.527.9a.366.366,0,0,0,.634.365Z" transform="translate(-96.344 -9.903)"/></g></g><path class="c" d="M33.02.5H2.98A2.983,2.983,0,0,0,0,3.48V27.747a2.983,2.983,0,0,0,2.98,2.98h9.695V32.98h-.787a1.055,1.055,0,1,0,0,2.109H24.113a1.055,1.055,0,0,0,0-2.109h-.787V30.727H33.02A2.983,2.983,0,0,0,36,27.747V3.48A2.983,2.983,0,0,0,33.02.5Zm-.759,22.884a1.055,1.055,0,0,1-1.055,1.055H4.794a1.055,1.055,0,0,1-1.055-1.055V5.031A1.055,1.055,0,0,1,4.794,3.976H31.207a1.055,1.055,0,0,1,1.055,1.055Zm0,0" transform="translate(452 957.5)"/></g></svg>